<svg id="Capa_1" data-name="Capa 1" xmlns="http://www.w3.org/2000/svg" viewBox="0 0 66.42 66.39"><path d="M243.61,278.54H221.16c-6.47,0-10.68-4.22-10.68-10.68q0-22.52,0-45c0-6.42,4.27-10.68,10.71-10.68h45c6.43,0,10.68,4.26,10.68,10.71v45c0,6.4-4.22,10.65-10.59,10.66Z" transform="translate(-210.47 -212.16)" style="fill:#014c92"/><path d="M256.28,232.91a5,5,0,0,1,4.3,1.8,14.22,14.22,0,0,0,4.12,3.18c2.45,1.34,3.32,3.12,2.92,5.93a28,28,0,0,1-2.74,8.62,18.59,18.59,0,0,0-1.71,9.55,76.69,76.69,0,0,1-.17,9c-.05.87-.31,1.6-1.31,1.65s-1.38-.58-1.47-1.48c-.31-2.81-.62-5.61-1-8.42a14.64,14.64,0,0,0-.37-2.2c-.14-.5-.41-1.08-1.07-1.05s-.79.59-.89,1.06c-.41,1.82-.79,3.65-1.12,5.48-.47,2.58-.87,5.16-1.31,7.74a12.75,12.75,0,0,1-.38,1.44,1.43,1.43,0,0,1-1.92,1.06,1.36,1.36,0,0,1-1.06-1.71c.24-2.35.51-4.7.77-7,.22-2.11.45-4.21.64-6.32.05-.52.19-1.25-.4-1.45s-.88.5-1.13,1q-3.6,6.33-7.17,12.68c-.26.46-.44,1-1,1.22a1.62,1.62,0,0,1-1.87-.22,1.91,1.91,0,0,1-.45-2.29c1.06-2.38,2.12-4.77,3.2-7.15.92-2,1.87-4.07,2.81-6.11a4.39,4.39,0,0,0,.21-.44c.21-.63.61-1.35-.11-1.81s-1.16.2-1.58.63c-2.14,2.15-4.26,4.32-6.39,6.48q-1.58,1.61-3.16,3.19c-1,1-1.6,1.12-2.43.37s-.88-1.55-.07-2.63c2.53-3.34,5.1-6.66,7.62-10a32.28,32.28,0,0,0,3.89-6.22c.21-.49.44-1,.62-1.49,1-2.77-.07-4.05-3-3.69a31.06,31.06,0,0,1-5.1.16,4.93,4.93,0,0,1-3.07-1.22,1.06,1.06,0,0,1-.48-1.07,1,1,0,0,1,1-.67c4.42-.31,8.26-2.25,12.15-4.15,2.78-1.35,5.54-2.85,8.7-3.22C255.61,233,255.94,232.94,256.28,232.91Z" transform="translate(-210.47 -212.16)" style="fill:#fefefe"/><path d="M242,246.39a25.45,25.45,0,0,1-3.57,6c-.34.47-.68.94-1,1.4-1,1.31-1.78,3.08-3.11,3.79s-3.17,0-4.78.36a2.44,2.44,0,0,1-1.71-.64,8,8,0,0,1-3-3.9,41.64,41.64,0,0,1-2.32-9.28,13.41,13.41,0,0,0-2.34-5.44c-2.05-3.12-4.31-6.11-6.06-9.43-.24-.47-.57-.91-.29-1.51.5-1.07,1.6-1.19,2.51-.13,1.77,2,3.47,4.14,5.21,6.2a21.51,21.51,0,0,0,1.78,1.91,1.15,1.15,0,0,0,1.48.27c.48-.36.29-.92.14-1.39a56.29,56.29,0,0,0-2.21-5.41c-1.13-2.58-2.3-5.15-3.4-7.75-.34-.8-.61-1.7.39-2.32s1.73-.39,2.33.75c1.55,2.94,3.05,5.9,4.58,8.85.51,1,1,2,1.59,3,.26.46.56,1.12,1.14,1s.47-.89.44-1.4c-.34-4.81-.68-9.61-1.06-14.42-.13-1.54.3-2.39,1.45-2.54,1-.13,1.87.7,2.09,2,.77,4.67,1.52,9.35,2.28,14a2.29,2.29,0,0,0,0,.25c.13.69.22,1.58,1,1.65s1-.89,1.09-1.55q1.32-6.64,2.57-13.32c.19-1,.59-1.63,1.71-1.53a1.64,1.64,0,0,1,1.6,2c-.32,5.6-.89,11.19-.84,16.8a.81.81,0,0,1-.67.88,25.39,25.39,0,0,1-6.7,1.82,3.92,3.92,0,0,0-3.84,2.82,4.06,4.06,0,0,0,1.69,4.47,8.49,8.49,0,0,0,5.34,1.76Z" transform="translate(-210.47 -212.16)" style="fill:#fefefe"/><path d="M273.7,242.73a14.32,14.32,0,0,1-.84,4.22c-.16.4-.39.82-.91.59s-.29-.62-.16-1a9.56,9.56,0,0,0,.15-6.94c-.13-.36-.14-.67.24-.84s.68.14.83.5A10.48,10.48,0,0,1,273.7,242.73Z" transform="translate(-210.47 -212.16)" style="fill:#f8f9fb"/><path d="M270.68,243a14.15,14.15,0,0,1-.48,3.31c-.12.35-.32.73-.79.57s-.41-.51-.3-.92a9.55,9.55,0,0,0-.46-6.89c-.18-.36-.29-.73.15-1s.69.13.86.47A9.69,9.69,0,0,1,270.68,243Z" transform="translate(-210.47 -212.16)" style="fill:#f9fafc"/><path d="M222,254.52c.45,0,.51.4.64.7a9.51,9.51,0,0,0,4.49,5.1c.35.17.69.39.47.85s-.58.35-1,.17a10.59,10.59,0,0,1-5.15-5.95C221.26,254.92,221.43,254.58,222,254.52Z" transform="translate(-210.47 -212.16)" style="fill:#f9fafc"/><path d="M219.38,255.55c.46,0,.59.32.68.64a9.51,9.51,0,0,0,4.1,5.72c.28.18.55.42.29.81s-.62.3-1,.08a10.68,10.68,0,0,1-4.57-6.42A.59.59,0,0,1,219.38,255.55Z" transform="translate(-210.47 -212.16)" style="fill:#f9fafc"/></svg>