<svg id="Capa_1" data-name="Capa 1" xmlns="http://www.w3.org/2000/svg" viewBox="0 0 66.39 66.37"><path d="M33.14,66.38H10.69C4.22,66.38,0,62.16,0,55.7v-45C0,4.28,4.28,0,10.72,0h45C62.15,0,66.4,4.28,66.4,10.73v45c0,6.4-4.22,10.65-10.59,10.66Z" transform="translate(-0.01 -0.02)" style="fill:#1f1f1f"/><path d="M45.81,20.75a5,5,0,0,1,4.3,1.8,14.36,14.36,0,0,0,4.12,3.18c2.45,1.34,3.32,3.12,2.92,5.93a28.18,28.18,0,0,1-2.74,8.62,18.5,18.5,0,0,0-1.71,9.55,77.21,77.21,0,0,1-.17,9c-.05.87-.31,1.6-1.31,1.65S49.84,59.9,49.75,59c-.31-2.81-.62-5.61-1-8.42a14.86,14.86,0,0,0-.37-2.2c-.14-.5-.41-1.08-1.07-1.05s-.79.59-.89,1.06C46,50.21,45.63,52,45.3,53.87c-.47,2.58-.87,5.16-1.31,7.74a13.84,13.84,0,0,1-.38,1.44,1.43,1.43,0,0,1-1.68,1.13l-.24-.07a1.36,1.36,0,0,1-1.09-1.59l0-.12c.24-2.35.51-4.7.77-7,.22-2.11.45-4.21.64-6.32.05-.52.19-1.25-.4-1.45s-.88.5-1.13,1Q36.91,55,33.34,61.31c-.26.46-.44,1-1,1.22a1.62,1.62,0,0,1-1.87-.22A1.91,1.91,0,0,1,30,60c1.06-2.38,2.12-4.77,3.2-7.15L36,46.76a3.55,3.55,0,0,0,.21-.44c.21-.63.61-1.35-.11-1.81s-1.16.2-1.58.63c-2.14,2.15-4.26,4.32-6.39,6.48-1.05,1.07-2.11,2.14-3.16,3.19s-1.6,1.12-2.43.37-.88-1.55-.07-2.63c2.53-3.34,5.1-6.66,7.62-10A32.59,32.59,0,0,0,34,36.33c.21-.49.44-1,.62-1.49,1-2.77-.07-4.05-3-3.69a31,31,0,0,1-5.1.16,4.91,4.91,0,0,1-3.07-1.22A1.06,1.06,0,0,1,23,29a1,1,0,0,1,1-.67C28.4,28,32.24,26.1,36.13,24.2c2.78-1.35,5.54-2.85,8.7-3.22A3,3,0,0,1,45.81,20.75Z" transform="translate(-0.01 -0.02)" style="fill:#fefefe"/><path d="M31.53,34.23a25.66,25.66,0,0,1-3.57,6c-.34.47-.68.94-1,1.4-1,1.31-1.78,3.08-3.11,3.79s-3.17,0-4.78.36a2.42,2.42,0,0,1-1.71-.64,8.06,8.06,0,0,1-3-3.9A41.24,41.24,0,0,1,12,32,13.28,13.28,0,0,0,9.7,26.52c-2-3.12-4.31-6.11-6.06-9.43-.24-.47-.57-.91-.29-1.51.5-1.07,1.6-1.19,2.51-.13,1.77,2,3.47,4.14,5.21,6.2a21.41,21.41,0,0,0,1.78,1.91,1.16,1.16,0,0,0,1.48.27c.48-.36.29-.92.14-1.39A55.26,55.26,0,0,0,12.26,17c-1.13-2.58-2.3-5.15-3.4-7.75-.34-.8-.61-1.7.39-2.32s1.73-.39,2.33.75c1.55,2.94,3.05,5.9,4.58,8.85.51,1,1,2,1.59,3,.26.46.56,1.12,1.14,1s.47-.89.44-1.4c-.34-4.81-.68-9.61-1.06-14.42-.13-1.54.3-2.39,1.45-2.54s1.87.7,2.09,2c.77,4.67,1.52,9.35,2.28,14v.25c.13.69.22,1.58,1,1.65s1-.89,1.09-1.55Q27.5,11.9,28.75,5.23c.19-1,.59-1.63,1.71-1.53A1.63,1.63,0,0,1,32.1,5.34a1.47,1.47,0,0,1,0,.36c-.32,5.6-.89,11.19-.84,16.8a.81.81,0,0,1-.67.88,25.49,25.49,0,0,1-6.7,1.82A3.93,3.93,0,0,0,20,28a4.06,4.06,0,0,0,1.69,4.47A8.45,8.45,0,0,0,27,34.25Z" transform="translate(-0.01 -0.02)" style="fill:#fefefe"/><path d="M63.23,30.57a14.51,14.51,0,0,1-.84,4.22c-.16.4-.39.82-.91.59s-.29-.62-.16-1a9.55,9.55,0,0,0,.15-6.94c-.13-.36-.14-.67.24-.84s.68.14.83.5A10.55,10.55,0,0,1,63.23,30.57Z" transform="translate(-0.01 -0.02)" style="fill:#f8f9fb"/><path d="M60.21,30.84a14.22,14.22,0,0,1-.48,3.31c-.12.35-.32.73-.79.57s-.41-.51-.3-.92a9.55,9.55,0,0,0-.46-6.89c-.18-.36-.29-.73.15-1s.69.13.86.47A9.69,9.69,0,0,1,60.21,30.84Z" transform="translate(-0.01 -0.02)" style="fill:#f9fafc"/><path d="M11.53,42.36c.45,0,.51.4.64.7a9.56,9.56,0,0,0,4.49,5.1c.35.17.69.39.47.85s-.58.35-1,.17a10.59,10.59,0,0,1-5.15-6C10.79,42.76,11,42.42,11.53,42.36Z" transform="translate(-0.01 -0.02)" style="fill:#f9fafc"/><path d="M8.91,43.39c.46,0,.59.32.68.64a9.48,9.48,0,0,0,4.1,5.72c.28.18.55.42.29.81s-.62.3-1,.08a10.68,10.68,0,0,1-4.57-6.42.59.59,0,0,1,.3-.78A.46.46,0,0,1,8.91,43.39Z" transform="translate(-0.01 -0.02)" style="fill:#f9fafc"/></svg>