<svg id="Capa_1" data-name="Capa 1" xmlns="http://www.w3.org/2000/svg" viewBox="0 0 490.4 490.01"><path d="M484.1,454.8,373.6,344.2a209.52,209.52,0,0,0,47.6-133.4C421.2,94.5,326.9.2,210.6.2S0,94.5,0,210.8,94.3,421.4,210.6,421.4a209.63,209.63,0,0,0,133.8-48L454.9,483.9c12.9,11.8,25,4.2,29.2,0C492.5,475.6,492.5,463.1,484.1,454.8Zm-443-244A169.52,169.52,0,0,1,210.6,41.3c93.6,0,169.6,75.9,169.6,169.5A169.52,169.52,0,0,1,210.7,380.3C117.1,380.3,41.1,304.4,41.1,210.8Z" transform="translate(0 -0.2)" style="fill:#f9f9f9"/></svg>